<svg xmlns="http://www.w3.org/2000/svg" viewBox="0 0 1632.66 415.52"><defs><style>.cls-1{fill:#f3a830;}.cls-2{fill:#3a97d5;}</style></defs><title>Asset 1</title><g id="Layer_2" data-name="Layer 2"><g id="Layer_1-2" data-name="Layer 1"><path class="cls-1" d="M482,134.05q-15.37,0-23.55,9.38T450.26,170q0,17.35,9.08,26.74t24.45,9.38a38.33,38.33,0,0,0,13.87-2.2,93.56,93.56,0,0,0,10.87-5,20.26,20.26,0,0,1,5.29,6.69,20.78,20.78,0,0,1,1.9,9.08q0,8.19-9.08,13.87T479,234.22a81.55,81.55,0,0,1-25.15-3.79,55.86,55.86,0,0,1-20.55-11.68,54.75,54.75,0,0,1-13.82-19.94q-5.1-12.08-5.09-28.84,0-15.57,4.89-27.44a58.12,58.12,0,0,1,13.37-20.06,56.23,56.23,0,0,1,19.83-12.35,69.89,69.89,0,0,1,24.35-4.19q18.36,0,28.44,6t10.08,15.37a15.54,15.54,0,0,1-2.6,9,21.17,21.17,0,0,1-6,6,66.24,66.24,0,0,0-11.07-5.79A36.19,36.19,0,0,0,482,134.05Z"/><path class="cls-1" d="M530.48,230.64a21.22,21.22,0,0,1-5.08-6.59,18.74,18.74,0,0,1-1.9-8.58,17.6,17.6,0,0,1,1.9-7.88,36.33,36.33,0,0,1,4.68-7.29L564.41,160H527.69a31,31,0,0,1-2.29-5.59,23.33,23.33,0,0,1-1.1-7.38q0-7,3.09-10.08a11.18,11.18,0,0,1,8.28-3.09h62.86a21.48,21.48,0,0,1,5.09,6.58,18.87,18.87,0,0,1,1.9,8.58,17.81,17.81,0,0,1-1.9,7.89,36.62,36.62,0,0,1-4.69,7.28l-33.52,40.31h39.07a34.78,34.78,0,0,1,2.3,5.59,24.3,24.3,0,0,1,1.09,7.38q0,7-3.09,10.08a11.18,11.18,0,0,1-8.28,3.1Z"/><path class="cls-1" d="M667.78,233.83a69.76,69.76,0,0,1-21.85-3.29,49.42,49.42,0,0,1-17.56-9.88,45.56,45.56,0,0,1-11.78-16.54q-4.29-10-4.29-23.35,0-13.17,4.29-22.65a43.89,43.89,0,0,1,27.24-24.54,59.58,59.58,0,0,1,18.36-2.9,55.68,55.68,0,0,1,19.26,3.2,46.53,46.53,0,0,1,15,8.78A39.3,39.3,0,0,1,706.23,156a41.12,41.12,0,0,1,3.49,17c0,4.53-1.27,8-3.79,10.38s-6.06,3.92-10.58,4.59l-49.29,7.38a16.49,16.49,0,0,0,9,9.88,35,35,0,0,0,15.56,3.29,55.5,55.5,0,0,0,15.47-2.09A49.43,49.43,0,0,0,698,201.57a16.82,16.82,0,0,1,5.38,5.59,14.33,14.33,0,0,1,2.2,7.58q0,9-8.38,13.37a44.49,44.49,0,0,1-14.37,4.59A100.86,100.86,0,0,1,667.78,233.83Zm-5.59-78.43a19.76,19.76,0,0,0-8.28,1.6,16.65,16.65,0,0,0-5.69,4.09,16.87,16.87,0,0,0-3.29,5.58,22.66,22.66,0,0,0-1.3,6.29l34.13-5.59a15.23,15.23,0,0,0-4.39-8q-3.81-4-11.18-4Z"/><path class="cls-1" d="M755.39,197.31c0,3.46,1.09,5.92,3.29,7.38s5.28,2.2,9.28,2.2a39,39,0,0,0,6.19-.5,33.82,33.82,0,0,0,5.59-1.3,25.68,25.68,0,0,1,3.09,4.89,15.11,15.11,0,0,1,1.3,6.49,15.42,15.42,0,0,1-5.69,12.37q-5.69,4.78-20.06,4.79-17.58,0-27-8t-9.48-25.95V114.29c1.47-.4,3.56-.83,6.29-1.3a52.48,52.48,0,0,1,8.68-.7q8.77,0,13.67,3.1t4.89,13.07v12.77h26.14a35.2,35.2,0,0,1,2.3,5.49A23.38,23.38,0,0,1,785,154q0,7-3.1,10.08a11.17,11.17,0,0,1-8.28,3.09H755.43Z"/><path class="cls-1" d="M878.48,201.7q0,15.18-11.38,23.75T833.58,234a94.29,94.29,0,0,1-15.57-1.2,44.26,44.26,0,0,1-12.23-3.71,21.76,21.76,0,0,1-8-6.29,14.29,14.29,0,0,1-2.89-9,15.26,15.26,0,0,1,2-8.08,20.11,20.11,0,0,1,4.79-5.49A78.11,78.11,0,0,0,815,206a54.57,54.57,0,0,0,17.26,2.49c4.12,0,7.28-.59,9.48-1.79s3.29-2.79,3.29-4.79a5,5,0,0,0-2.39-4.39c-1.6-1.07-4.26-1.93-8-2.6l-6-1.19q-17.37-3.39-25.85-10.68t-8.48-20.85a27.51,27.51,0,0,1,12.22-23.31,45.29,45.29,0,0,1,13.87-6.19,68.07,68.07,0,0,1,17.86-2.2,83.78,83.78,0,0,1,13.87,1.1,46.13,46.13,0,0,1,11.27,3.29,20.74,20.74,0,0,1,7.59,5.69,12.93,12.93,0,0,1,2.79,8.28,17.07,17.07,0,0,1-1.7,7.89,17.94,17.94,0,0,1-4.29,5.49,24.87,24.87,0,0,0-4.79-2.1q-3.21-1.09-7-2c-2.53-.6-5.09-1.09-7.68-1.49a46.89,46.89,0,0,0-7.09-.6q-6.6,0-10.18,1.49c-2.4,1-3.59,2.56-3.59,4.7a4.16,4.16,0,0,0,2,3.59q2,1.41,7.58,2.59l6.19,1.4q19.14,4.41,27.24,12.07T878.48,201.7Z"/><path class="cls-1" d="M890.29,135a49.13,49.13,0,0,1,6.29-1.19,65.9,65.9,0,0,1,8.88-.6,47.37,47.37,0,0,1,7.88.6,13.64,13.64,0,0,1,5.89,2.39,11.81,11.81,0,0,1,3.69,4.89,21.41,21.41,0,0,1,1.3,8.08v42.91c0,5.46,1.32,9.35,4,11.67s6.51,3.5,11.57,3.5a29.1,29.1,0,0,0,7.49-.8,25.82,25.82,0,0,0,4.49-1.6V135a49.31,49.31,0,0,1,6.28-1.19,65.9,65.9,0,0,1,8.88-.6,47.41,47.41,0,0,1,7.89.6,13.56,13.56,0,0,1,5.88,2.39,11.68,11.68,0,0,1,3.7,4.89,21.61,21.61,0,0,1,1.29,8.08v60.67q0,10-8.38,15a54.62,54.62,0,0,1-16.66,6.68,90.5,90.5,0,0,1-21.06,2.3,77.18,77.18,0,0,1-19.85-2.4,44.09,44.09,0,0,1-15.67-7.38,32.84,32.84,0,0,1-10.18-12.87q-3.6-7.89-3.59-19.06Z"/><path class="cls-1" d="M1017,205.89q-2.22-5-4.69-11.18t-5.19-14.16q-2.7-8-5.59-18.27t-6.06-23.64a24.51,24.51,0,0,1,7.48-4.89,24.87,24.87,0,0,1,10.28-2.1,21.45,21.45,0,0,1,11.57,2.9q4.59,2.91,6.79,10.87l15.76,54.88h.8q2.4-6.78,4.69-14.77t4.49-16.46q2.19-8.48,4.09-17t3.3-16.67a33.36,33.36,0,0,1,15.76-3.79,20.88,20.88,0,0,1,11.58,3c3,2,4.59,5.45,4.59,10.37a66.07,66.07,0,0,1-1.4,12.47q-1.41,7.11-3.69,15.07T1086.18,189q-3.12,8.49-6.49,16.66t-7,15.47q-3.6,7.29-7,13.07a140.21,140.21,0,0,1-10.37,16,57.28,57.28,0,0,1-9.18,9.68,26.08,26.08,0,0,1-8.79,4.79,32.13,32.13,0,0,1-9.18,1.3q-8.37,0-13.56-5a20.84,20.84,0,0,1-6.19-13q6.39-5,12.77-11.08a133.86,133.86,0,0,0,11.57-12.47,18.83,18.83,0,0,1-7.28-4.69Q1021.61,216.08,1017,205.89Z"/><path class="cls-1" d="M1145.13,130.65a82.45,82.45,0,0,1,19.66,2.2,44.24,44.24,0,0,1,15.16,6.68,30.43,30.43,0,0,1,9.68,11.38,36.5,36.5,0,0,1,3.4,16.26v44.71a12.41,12.41,0,0,1-2.9,8.48,29.15,29.15,0,0,1-6.88,5.69q-13,7.77-36.52,7.78a83.07,83.07,0,0,1-19.06-2,45,45,0,0,1-14.57-6,27.38,27.38,0,0,1-9.38-10.18,29.88,29.88,0,0,1-3.29-14.37q0-13.77,8.18-21.15T1134,171l26.15-2.8v-1.39a8.59,8.59,0,0,0-5.09-8.29q-5.09-2.49-14.67-2.49a67.91,67.91,0,0,0-14.77,1.6,77.24,77.24,0,0,0-13,4,13.77,13.77,0,0,1-4.39-5.49,17.16,17.16,0,0,1-1.8-7.68,12.78,12.78,0,0,1,2.5-8.29,19.42,19.42,0,0,1,7.68-5.29,60.39,60.39,0,0,1,13.67-3.19A119.63,119.63,0,0,1,1145.13,130.65Zm1.6,78.43a43.74,43.74,0,0,0,7.48-.7,18,18,0,0,0,6.09-1.89v-16l-14.37,1.2a22.38,22.38,0,0,0-9.18,2.39,6.44,6.44,0,0,0-3.59,6,7.9,7.9,0,0,0,3.09,6.49q3.09,2.55,10.48,2.55Z"/><path class="cls-2" d="M1241.48,137.64a24.78,24.78,0,0,1-2.6-6,25.78,25.78,0,0,1-1.2-8q0-7.77,3.5-11.18a12.5,12.5,0,0,1,9.08-3.39h87a28.35,28.35,0,0,1,3.79,14q0,7.78-3.49,11.18a12.47,12.47,0,0,1-9.08,3.39h-22.16v92.2a52.1,52.1,0,0,1-6.88,1.19,72.06,72.06,0,0,1-9.28.6,40.53,40.53,0,0,1-8.08-.7,14.14,14.14,0,0,1-5.89-2.49,10.71,10.71,0,0,1-3.59-5,23.92,23.92,0,0,1-1.12-8.32V137.64Z"/><path class="cls-2" d="M1390.19,233.83a69.76,69.76,0,0,1-21.85-3.29,49.42,49.42,0,0,1-17.56-9.88A45.56,45.56,0,0,1,1339,204.12q-4.29-10-4.29-23.35,0-13.17,4.29-22.65a43.89,43.89,0,0,1,27.24-24.54,59.58,59.58,0,0,1,18.36-2.9,55.68,55.68,0,0,1,19.26,3.2,46.53,46.53,0,0,1,15,8.78,39.3,39.3,0,0,1,9.78,13.37,41.12,41.12,0,0,1,3.49,17c0,4.53-1.27,8-3.79,10.38s-6.06,3.92-10.58,4.59l-49.28,7.31a16.49,16.49,0,0,0,9,9.88,35,35,0,0,0,15.56,3.29,55.45,55.45,0,0,0,15.47-2.09,49.43,49.43,0,0,0,11.88-4.89,16.82,16.82,0,0,1,5.38,5.59,14.33,14.33,0,0,1,2.2,7.58q0,9-8.38,13.37a44.49,44.49,0,0,1-14.37,4.59A99.65,99.65,0,0,1,1390.19,233.83Zm-5.59-78.43a19.76,19.76,0,0,0-8.28,1.6,16.65,16.65,0,0,0-5.69,4.09,16.87,16.87,0,0,0-3.29,5.58A22.66,22.66,0,0,0,1366,173l34.13-5.59a15.23,15.23,0,0,0-4.39-8Q1392,155.41,1384.6,155.4Z"/><path class="cls-2" d="M1498.55,157.4a28.55,28.55,0,0,0-9.48,1.59,22.21,22.21,0,0,0-7.78,4.69,23.15,23.15,0,0,0-5.29,7.69,26.87,26.87,0,0,0-2,10.77q0,12.39,7.08,18.56a25.26,25.26,0,0,0,17.26,6.19,34.09,34.09,0,0,0,10.38-1.4,64.37,64.37,0,0,0,7.78-3,20.82,20.82,0,0,1,6,6.08,15.06,15.06,0,0,1,2,7.89q0,8.17-7.79,12.67t-21.55,4.49a66.22,66.22,0,0,1-22.75-3.69A51.2,51.2,0,0,1,1455,219.55a45.72,45.72,0,0,1-11.28-16.07,52.35,52.35,0,0,1-4-20.75q0-13.17,4.29-23a44.5,44.5,0,0,1,11.68-16.26,49.45,49.45,0,0,1,17.06-9.58,65.1,65.1,0,0,1,20.45-3.2q14.37,0,22.16,5.19t7.78,13.37a14.62,14.62,0,0,1-1.8,7.09,24.68,24.68,0,0,1-4.19,5.69,66.72,66.72,0,0,0-8.18-3.1A34.73,34.73,0,0,0,1498.55,157.4Z"/><path class="cls-2" d="M1632.66,230.44a46.48,46.48,0,0,1-6.29,1.19,62.89,62.89,0,0,1-8.88.6,45.18,45.18,0,0,1-7.88-.6,13.31,13.31,0,0,1-5.89-2.39,11.38,11.38,0,0,1-3.69-4.89,21,21,0,0,1-1.3-8.08V172q0-8.18-4.09-11.47a15.56,15.56,0,0,0-10.08-3.29,28.54,28.54,0,0,0-7.58,1,21.94,21.94,0,0,0-5.79,2.4v69.85a46.63,46.63,0,0,1-6.28,1.19,62.89,62.89,0,0,1-8.88.6,45.22,45.22,0,0,1-7.89-.6,13.22,13.22,0,0,1-5.88-2.39,11.48,11.48,0,0,1-3.7-4.89,21.15,21.15,0,0,1-1.29-8.08V100.52c1.46-.27,3.62-.63,6.48-1.1a56,56,0,0,1,8.68-.7,47.41,47.41,0,0,1,7.89.6,13.45,13.45,0,0,1,5.88,2.4,11.6,11.6,0,0,1,3.7,4.89,21.41,21.41,0,0,1,1.29,8.08v19.56a71.31,71.31,0,0,1,7.89-2.3,49.78,49.78,0,0,1,11.67-1.3q19.76,0,30.83,9.88T1632.66,170Z"/><path class="cls-1" d="M234.48,271.12a102.13,102.13,0,0,1,0-204.26,18.44,18.44,0,1,1,.85,36.87h-.85A65.26,65.26,0,1,0,299.74,169a18.44,18.44,0,0,1,36.87-.86V169A102.25,102.25,0,0,1,234.48,271.12Z"/><path class="cls-1" d="M46.07,301.12a14.76,14.76,0,0,1-10.59-25l64.28-66a14.75,14.75,0,0,1,21.13,20.58l-64.28,66A14.69,14.69,0,0,1,46.07,301.12Z"/><path class="cls-1" d="M14.75,415.52A14.75,14.75,0,0,1,4.09,390.58l36.32-38A14.75,14.75,0,0,1,61.73,373L25.41,411A14.67,14.67,0,0,1,14.75,415.52Z"/><path class="cls-1" d="M90,336.85a14.74,14.74,0,0,1-10.65-24.94l40-41.79a14.75,14.75,0,0,1,21.32,20.39l-40,41.79A14.69,14.69,0,0,1,90,336.85Z"/><path class="cls-1" d="M119.55,401.42a14.75,14.75,0,0,1-10.68-24.92l83.06-87.28a14.75,14.75,0,0,1,21.37,20.34l-83.06,87.27A14.68,14.68,0,0,1,119.55,401.42Z"/><path class="cls-2" d="M213.16,8.21h0c7.3,7.2,16.17,11.42,25.75,11.43s18.47-4.17,25.79-11.33h0a29.23,29.23,0,1,1-.08,42h0c-7.29-7.18-16.17-11.4-25.75-11.41s-18.45,4.22-25.77,11.42h0a29.23,29.23,0,1,1,.08-42.1Z"/><path class="cls-2" d="M304.21,8.21h0c7.3,7.2,16.17,11.42,25.75,11.43s18.47-4.17,25.78-11.33h0a29.23,29.23,0,1,1-.07,42h0c-7.29-7.18-16.16-11.4-25.74-11.41s-18.45,4.22-25.78,11.42h0a29.24,29.24,0,1,1,.07-42.1Z"/><path class="cls-2" d="M263,101.12h0c7.2-7.3,11.41-16.17,11.43-25.75s-4.17-18.47-11.33-25.79h0a29.24,29.24,0,1,1,42.05.08h0C298,57,293.77,65.82,293.75,75.4s4.18,18.47,11.35,25.79h0a29.24,29.24,0,1,1-42.09-.07Z"/><path class="cls-2" d="M256.77,224.82c19.86-4.7,31.55-37.19,36.87-56.79v-.19a33.46,33.46,0,0,1,3.48-14.72h0a41.92,41.92,0,0,1,7.92-11h0a29.24,29.24,0,1,0-42-.08h0c7.16,7.31,11.35,16.2,11.33,25.78s-4.23,18.46-11.43,25.75h0a29.22,29.22,0,0,0-6.1,31.25Z"/></g></g></svg>